<?xml version="1.0" encoding="UTF-8" standalone="no"?>
<svg width="172px" height="84px" viewBox="0 0 172 84" version="1.1" xmlns="http://www.w3.org/2000/svg" xmlns:xlink="http://www.w3.org/1999/xlink" xmlns:sketch="http://www.bohemiancoding.com/sketch/ns">
    <!-- Generator: Sketch 3.3.3 (12072) - http://www.bohemiancoding.com/sketch -->
    <title>starflex_logo</title>
    <desc>Created with Sketch.</desc>
    <defs></defs>
    <g id="Page-1" stroke="none" stroke-width="1" fill="none" fill-rule="evenodd" sketch:type="MSPage">
        <g id="starflex_logo" sketch:type="MSArtboardGroup">
            <g id="STARflex-Logo" sketch:type="MSLayerGroup" transform="translate(6.000000, 4.000000)">
                <g id="iconograph" sketch:type="MSShapeGroup">
                    <path d="M64.8720555,0 C31.0579432,0 3.24105077,13.5550324 0,30.8952436 C4.92537636,15.984708 29.5522582,4.65474696 59.2321168,4.65474696 C92.4337471,4.65474696 119.357437,18.8491677 119.357437,36.3939831 C119.357437,53.9387986 92.408227,68.0820682 59.2065967,68.0820682 C56.2462669,68.0820682 53.3369772,67.9541905 50.4787277,67.7495863 C55.097863,68.2866725 59.9211591,68.5935788 64.8465354,68.5935788 C100.855375,68.5935788 130.050352,53.2482592 130.050352,34.2967894 C130.050352,15.3453197 100.855375,0 64.8720555,0 L64.8720555,0 L64.8720555,0 Z" id="Shape" fill="#EB3025"></path>
                    <path d="M131.862278,45.1663908 C126.936902,60.0769265 102.31002,71.4068874 72.6301613,71.4068874 C39.428531,71.4068874 12.5048415,57.2124667 12.5048415,39.6676513 C12.5048415,22.1228358 39.428531,7.92841515 72.6301613,7.92841515 C75.5904911,7.92841515 78.4997808,8.03071728 81.3580303,8.26089708 C76.7388949,7.72381089 71.9155989,7.4169045 66.9902225,7.4169045 C30.9813829,7.4169045 1.78640593,22.7622242 1.78640593,41.7136939 C1.78640593,60.6651637 30.9813829,76.0360589 66.9902225,76.0360589 C100.804335,76.0360589 128.595707,62.506602 131.862278,45.1663908 Z" id="Shape" fill="#EB3025"></path>
                    <g id="MOJIX" transform="translate(23.478478, 31.222202)" fill="#FFFFFF">
                        <path d="M0.127600424,1.1052723 L7.3753045,1.1052723 L10.1569937,8.59890339 L12.938683,1.1052723 L20.160867,1.1052723 L20.160867,13.4071035 L15.643812,13.4071035 L15.643812,4.02088303 L12.1730804,13.4071035 L8.08986688,13.4071035 L4.61913535,4.02088303 L4.61913535,13.4071035 L0.102080339,13.4071035 L0.102080339,1.1052723 L0.127600424,1.1052723 L0.127600424,1.1052723 Z" id="Shape"></path>
                        <path d="M24.1675203,7.26897569 C24.1675203,5.2485086 24.8565626,3.6884011 26.2601672,2.56307766 C27.6637719,1.43775422 29.6032983,0.875092503 32.1042667,0.875092503 C34.6562751,0.875092503 36.6468417,1.43775422 38.0249263,2.53750214 C39.4030109,3.63725004 40.0920532,5.17178201 40.0920532,7.16667356 C40.0920532,8.59890339 39.7858122,9.7753779 39.1733301,10.6960971 C38.5608481,11.6168163 37.6931652,12.3329312 36.5447614,12.8444419 C35.3963576,13.3559525 33.9672328,13.6117078 32.2573872,13.6117078 C30.5220214,13.6117078 29.0928966,13.381528 27.9444928,12.9467439 C26.796089,12.5119599 25.877366,11.795845 25.1883237,10.8495503 C24.5248015,9.90325556 24.1675203,8.70120553 24.1675203,7.26897569 L24.1675203,7.26897569 L24.1675203,7.26897569 Z M28.9397761,7.26897569 C28.9397761,8.5221768 29.2204971,9.41732044 29.807459,9.95440663 C30.394421,10.4914928 31.1600235,10.7728237 32.1553068,10.7728237 C33.1761102,10.7728237 33.9672328,10.5170684 34.5286747,9.97998216 C35.0901166,9.44289597 35.3708375,8.49660126 35.3708375,7.11552249 C35.3708375,5.96462352 35.0901166,5.12063094 34.5031546,4.58354475 C33.9161927,4.04645857 33.12507,3.79070324 32.1297867,3.79070324 C31.1600235,3.79070324 30.394421,4.07203409 29.807459,4.60912029 C29.2204971,5.14620647 28.9397761,6.01577458 28.9397761,7.26897569 L28.9397761,7.26897569 L28.9397761,7.26897569 Z" id="Shape"></path>
                        <path d="M50.7084085,1.1052723 L55.6082647,1.1052723 L55.6082647,7.80606188 C55.6082647,9.21271618 55.4551442,10.2868886 55.1233831,11.0030035 C54.791622,11.7446939 54.1536199,12.3585067 53.1838567,12.8700174 C52.2140935,13.381528 50.9891294,13.6372834 49.4579243,13.6372834 C47.850159,13.6372834 46.6251949,13.4582546 45.757512,13.1257727 C44.8898291,12.7932908 43.2055035,11.4633631 43.2055035,8.16411934 L47.5439179,8.16411934 C47.5439179,8.70120553 47.6204782,9.69865131 47.7225585,9.97998216 C47.850159,10.2357375 48.0287996,10.4659173 48.3095205,10.6193705 C48.4881611,10.7216726 48.768882,10.7728237 49.1006431,10.7728237 C49.6365649,10.7728237 50.0448863,10.6193705 50.3000871,10.2868886 C50.5552879,9.97998216 50.6828884,9.44289597 50.6828884,8.70120553 L50.6828884,1.1052723 L50.7084085,1.1052723 L50.7084085,1.1052723 Z" id="Shape"></path>
                        <path d="M61.0695629,1.1052723 L66.4543008,1.1052723 L66.4543008,13.4071035 L61.0695629,13.4071035 L61.0695629,1.1052723 L61.0695629,1.1052723 Z" id="Shape"></path>
                        <path d="M69.542231,1.1052723 L75.4628907,1.1052723 L78.550821,4.89045114 L81.5366709,1.1052723 L87.4062904,1.1052723 L81.9960324,7.06437143 L87.9166921,13.4071035 L81.868432,13.4071035 L78.4232205,9.44289597 L74.9780091,13.4071035 L68.9807892,13.4071035 L74.9780091,6.98764483 L69.542231,1.1052723 L69.542231,1.1052723 Z" id="Shape"></path>
                    </g>
                    <path d="M135.077809,18.2323528 C135.077809,18.7678485 134.975728,19.2523445 134.797088,19.7113408 C134.592927,20.1703371 134.337726,20.552834 134.005965,20.9098312 C133.674204,21.2413285 133.265883,21.5218262 132.806521,21.7003248 C132.34716,21.9043231 131.862278,21.9808225 131.326356,21.9808225 C130.790434,21.9808225 130.280033,21.8788233 129.820671,21.7003248 C129.36131,21.5218262 128.978508,21.2413285 128.646747,20.935331 C128.314986,20.6038336 128.059785,20.2213367 127.881145,19.7623404 C127.702504,19.3033441 127.600424,18.818848 127.600424,18.2578526 C127.600424,17.7223569 127.702504,17.2378608 127.881145,16.7788645 C128.085306,16.3198682 128.340506,15.9373713 128.672267,15.605874 C129.004029,15.2743767 129.41235,14.9938789 129.871711,14.8153804 C130.331073,14.611382 130.815955,14.5348826 131.351876,14.5348826 C131.887798,14.5348826 132.3982,14.6368818 132.857561,14.8153804 C133.316923,14.9938789 133.699724,15.2488769 134.031485,15.5803742 C134.363246,15.9118715 134.618447,16.2943684 134.797088,16.7533647 C134.975728,17.212361 135.077809,17.6968571 135.077809,18.2323528 L135.077809,18.2323528 L135.077809,18.2323528 Z M134.210126,18.2833524 C134.210126,17.8243561 134.133566,17.4163594 134.005965,17.0338625 C133.878365,16.6513655 133.674204,16.345368 133.393483,16.0903701 C133.138282,15.8353721 132.832041,15.6313738 132.47476,15.478375 C132.117479,15.3253763 131.734678,15.2743767 131.326356,15.2743767 C130.892515,15.2743767 130.484193,15.3508761 130.126912,15.5038748 C129.769631,15.6568736 129.46339,15.8608719 129.208189,16.1413697 C128.952988,16.4218674 128.748828,16.7278649 128.621227,17.084862 C128.493627,17.4418592 128.417067,17.8243561 128.417067,18.2323528 C128.417067,18.6913491 128.493627,19.0993458 128.621227,19.4563429 C128.774348,19.8388398 128.952988,20.1448373 129.233709,20.3998353 C129.48891,20.6548332 129.795151,20.8588316 130.152432,21.0118303 C130.509714,21.1648291 130.892515,21.2158287 131.300836,21.2158287 C131.734678,21.2158287 132.142999,21.1393293 132.50028,20.9863305 C132.857561,20.8333318 133.163802,20.6293334 133.419003,20.3488357 C133.674204,20.0938378 133.878365,19.7623404 134.005965,19.4053433 C134.133566,19.073846 134.210126,18.6913491 134.210126,18.2833524 L134.210126,18.2833524 L134.210126,18.2833524 Z M133.061722,20.0428382 C133.061722,20.068338 133.061722,20.0938378 133.036202,20.1193375 C133.036202,20.1448373 133.010682,20.1703371 132.959642,20.1703371 C132.908602,20.1703371 132.857561,20.1958369 132.806521,20.1958369 L132.5258,20.1958369 L132.270599,20.1958369 C132.194039,20.1958369 132.142999,20.1703371 132.117479,20.1703371 C132.066439,20.1448373 132.040919,20.1193375 132.015399,20.0938378 C131.989878,20.068338 131.964358,20.0173384 131.964358,19.9663388 L131.760198,19.3033441 C131.683637,19.073846 131.581557,18.8953474 131.479477,18.818848 C131.377396,18.7168489 131.224276,18.6913491 130.994595,18.6913491 L130.739394,18.6913491 L130.739394,20.0428382 C130.739394,20.1193375 130.713874,20.1703371 130.662834,20.1958369 C130.611794,20.2213367 130.484193,20.2468365 130.280033,20.2468365 C130.075872,20.2468365 129.948272,20.2468365 129.897232,20.1958369 C129.820671,20.1703371 129.795151,20.1193375 129.795151,20.0428382 L129.795151,16.600366 C129.795151,16.4473672 129.820671,16.345368 129.897232,16.2688686 C129.973792,16.1923693 130.075872,16.1413697 130.203473,16.1413697 L131.300836,16.1413697 C131.556037,16.1413697 131.785718,16.1668695 131.989878,16.2178691 C132.194039,16.2688686 132.34716,16.345368 132.50028,16.4218674 C132.627881,16.5238666 132.729961,16.6258658 132.806521,16.7788645 C132.883081,16.9318633 132.908602,17.084862 132.908602,17.2888604 C132.908602,17.5948579 132.832041,17.8243561 132.653401,18.0028546 C132.47476,18.1813532 132.270599,18.2833524 131.989878,18.3598518 C132.142999,18.4108513 132.296119,18.4873507 132.42372,18.6148497 C132.55132,18.7423487 132.678921,18.9208472 132.781001,19.1503454 L133.010682,19.7623404 C133.061722,19.9153392 133.061722,20.0173384 133.061722,20.0428382 L133.061722,20.0428382 L133.061722,20.0428382 Z M131.887798,17.3908596 C131.887798,17.3143602 131.887798,17.2633606 131.862278,17.1868612 C131.836758,17.1103618 131.811238,17.0593623 131.760198,17.0083627 C131.709158,16.9573631 131.632597,16.9318633 131.556037,16.9063635 C131.479477,16.8808637 131.351876,16.8553639 131.224276,16.8553639 L130.790434,16.8553639 L130.790434,17.9263553 L131.224276,17.9263553 C131.504997,17.9263553 131.683637,17.8753557 131.785718,17.7733565 C131.836758,17.6968571 131.887798,17.5438583 131.887798,17.3908596 L131.887798,17.3908596 L131.887798,17.3908596 Z" id="Shape" fill="#FFFFFF"></path>
                </g>
                <g id="STARflex-XL-Copy-+-Path-+-Path-Copy" transform="translate(115.000000, 67.000000)" fill="#FFFFFF" sketch:type="MSShapeGroup">
                    <path d="M5.5,7.08251953 C5.5,6.65641063 5.34065915,6.3081882 5.02197266,6.0378418 C4.70328617,5.76749539 4.1482787,5.52848411 3.35693359,5.32080078 C2.50113504,5.10595596 1.85302955,4.82666187 1.41259766,4.48291016 C0.972165767,4.13915844 0.751953125,3.67545865 0.751953125,3.09179688 C0.751953125,2.49381211 0.998125793,2.00683782 1.49047852,1.63085938 C1.98283124,1.25488093 2.61571879,1.06689453 3.38916016,1.06689453 C4.19482825,1.06689453 4.84472409,1.29068787 5.33886719,1.73828125 C5.83301028,2.18587463 6.07291674,2.73193037 6.05859375,3.37646484 L6.04248047,3.40869141 L5.45166016,3.40869141 C5.45166016,2.88590233 5.26635927,2.45621913 4.89575195,2.11962891 C4.52514463,1.78303868 4.02295239,1.61474609 3.38916016,1.61474609 C2.76252942,1.61474609 2.2728696,1.75439313 1.92016602,2.03369141 C1.56746243,2.31298968 1.39111328,2.66031693 1.39111328,3.07568359 C1.39111328,3.46956577 1.55403483,3.79809439 1.87988281,4.0612793 C2.2057308,4.32446421 2.76789965,4.5563141 3.56640625,4.75683594 C4.40788181,4.97168076 5.04793075,5.26171692 5.48657227,5.62695312 C5.92521378,5.99218933 6.14453125,6.47379258 6.14453125,7.07177734 C6.14453125,7.69482733 5.88940685,8.19075336 5.37915039,8.55957031 C4.86889393,8.92838726 4.21810292,9.11279297 3.42675781,9.11279297 C2.64615495,9.11279297 1.96492804,8.91675001 1.38305664,8.5246582 C0.801185242,8.1325664 0.51920564,7.56055063 0.537109375,6.80859375 L0.547851563,6.77636719 L1.13867188,6.77636719 C1.13867188,7.38509419 1.3660459,7.83626155 1.82080078,8.12988281 C2.27555566,8.42350407 2.81086932,8.5703125 3.42675781,8.5703125 C4.04622706,8.5703125 4.54662895,8.43424615 4.92797852,8.16210938 C5.30932808,7.8899726 5.5,7.53011292 5.5,7.08251953 L5.5,7.08251953 Z M12.8798828,1.72753906 L10.1889648,1.72753906 L10.1889648,9 L9.54443359,9 L9.54443359,1.72753906 L6.85351562,1.72753906 L6.85351562,1.1796875 L12.8798828,1.1796875 L12.8798828,1.72753906 Z M17.9287109,6.81933594 L14.3461914,6.81933594 L13.5405273,9 L12.8745117,9 L15.8447266,1.1796875 L16.4516602,1.1796875 L19.4003906,9 L18.734375,9 L17.9287109,6.81933594 Z M14.5610352,6.24462891 L17.7192383,6.24462891 L16.1616211,2.01220703 L16.1293945,2.01220703 L14.5610352,6.24462891 Z M21.2211914,5.46582031 L21.2211914,9 L20.5820312,9 L20.5820312,1.18505859 L23.2299805,1.18505859 C24.0678753,1.18505859 24.7106097,1.36856913 25.1582031,1.7355957 C25.6057965,2.10262228 25.8295898,2.63883111 25.8295898,3.34423828 C25.8295898,3.75960494 25.7096366,4.13110188 25.4697266,4.45874023 C25.2298165,4.78637859 24.891441,5.02538987 24.4545898,5.17578125 C24.9379907,5.29752665 25.2862131,5.51505377 25.4992676,5.82836914 C25.712322,6.14168451 25.8188477,6.53466561 25.8188477,7.00732422 L25.8188477,7.74316406 C25.8188477,7.98665486 25.8474932,8.20507716 25.9047852,8.3984375 C25.9620771,8.59179784 26.0569655,8.74934835 26.1894531,8.87109375 L26.1894531,9 L25.5341797,9 C25.401692,8.87109311 25.308594,8.69026809 25.2548828,8.45751953 C25.2011716,8.22477097 25.1743164,7.98307417 25.1743164,7.73242188 L25.1743164,7.01806641 C25.1743164,6.5382463 25.0194514,6.15958798 24.7097168,5.88208008 C24.3999822,5.60457218 23.9676135,5.46582031 23.4125977,5.46582031 L21.2211914,5.46582031 Z M21.2211914,4.91796875 L23.1494141,4.91796875 C23.8548212,4.91796875 24.3704411,4.77563619 24.6962891,4.4909668 C25.022137,4.2062974 25.1850586,3.82226804 25.1850586,3.33886719 C25.1850586,2.82323961 25.0230322,2.42667782 24.6989746,2.14916992 C24.374917,1.87166202 23.8852572,1.73291016 23.2299805,1.73291016 L21.2211914,1.73291016 L21.2211914,4.91796875 Z M28.128418,9 L28.128418,3.71484375 L27.1669922,3.71484375 L27.1669922,3.18847656 L28.128418,3.18847656 L28.128418,2.33984375 C28.128418,1.75618198 28.2743312,1.30501461 28.5661621,0.986328125 C28.857993,0.667641636 29.2670872,0.508300781 29.793457,0.508300781 C29.9116217,0.508300781 30.0315749,0.517252515 30.1533203,0.53515625 C30.2750657,0.553059985 30.3985996,0.578124839 30.5239258,0.610351562 L30.4433594,1.14208984 C30.3574214,1.12060536 30.2687993,1.10359707 30.1774902,1.09106445 C30.0861812,1.07853184 29.9796556,1.07226562 29.8579102,1.07226562 C29.5069969,1.07226562 29.2384449,1.18326712 29.0522461,1.40527344 C28.8660472,1.62727976 28.7729492,1.93880008 28.7729492,2.33984375 L28.7729492,3.18847656 L30.1586914,3.18847656 L30.1586914,3.71484375 L28.7729492,3.71484375 L28.7729492,9 L28.128418,9 Z M31.9956055,9 L31.3564453,9 L31.3564453,0.62109375 L31.9956055,0.62109375 L31.9956055,9 Z M35.9541016,9.11279297 C35.2272099,9.11279297 34.6229679,8.84424097 34.1413574,8.30712891 C33.6597469,7.77001685 33.4189453,7.08968511 33.4189453,6.26611328 L33.4189453,5.97070312 C33.4189453,5.1399698 33.6579566,4.45068633 34.1359863,3.90283203 C34.6140161,3.35497773 35.1931932,3.08105469 35.8735352,3.08105469 C36.5861038,3.08105469 37.1464823,3.30663837 37.5546875,3.7578125 C37.9628927,4.20898663 38.1669922,4.81054312 38.1669922,5.5625 L38.1669922,6.11035156 L34.0634766,6.11035156 L34.0634766,6.26611328 C34.0634766,6.92139 34.2371402,7.46923608 34.5844727,7.90966797 C34.9318051,8.35009986 35.3883435,8.5703125 35.9541016,8.5703125 C36.3551452,8.5703125 36.6971015,8.51481175 36.9799805,8.40380859 C37.2628595,8.29280543 37.5045563,8.13346458 37.7050781,7.92578125 L37.9790039,8.36621094 C37.7605783,8.59537875 37.4839698,8.77709894 37.1491699,8.91137695 C36.8143701,9.04565497 36.4160179,9.11279297 35.9541016,9.11279297 L35.9541016,9.11279297 Z M35.8735352,3.62890625 C35.3972958,3.62890625 34.9980485,3.81062644 34.6757812,4.17407227 C34.353514,4.53751809 34.1655276,4.99316132 34.1118164,5.54101562 L34.1225586,5.56787109 L37.527832,5.56787109 L37.527832,5.40673828 C37.527832,4.90185294 37.3792333,4.47933113 37.0820312,4.13916016 C36.7848292,3.79898918 36.3820012,3.62890625 35.8735352,3.62890625 L35.8735352,3.62890625 Z M41.2661133,5.5625 L42.8398438,3.18847656 L43.6025391,3.18847656 L41.6313477,6.04052734 L43.6831055,9 L42.9311523,9 L41.2768555,6.52392578 L39.6225586,9 L38.8598633,9 L40.9169922,6.04052734 L38.9458008,3.18847656 L39.703125,3.18847656 L41.2661133,5.5625 Z" id="STARflex-XL-Copy"></path>
                </g>
            </g>
        </g>
    </g>
</svg>